<svg width="current" height="current" viewBox="0 0 286 286" fill="none" xmlns="http://www.w3.org/2000/svg">
<path d="M107.261 155.179H68.5195C63.6099 155.179 59.582 159.171 59.582 164.14C59.582 166.381 60.4281 168.609 62.0369 170.313C82.1164 191.465 117.95 229.241 134.359 246.532C136.611 248.915 139.745 250.25 142.999 250.25C146.264 250.25 149.386 248.915 151.638 246.532C168.048 229.241 203.893 191.465 223.949 170.313C225.569 168.609 226.415 166.381 226.415 164.14C226.415 159.171 222.399 155.179 217.478 155.179H178.737V47.6905C178.737 41.3627 173.136 35.75 166.82 35.75H119.177C112.861 35.75 107.261 41.3627 107.261 47.6905V155.179Z" fill="currentColor"/>
</svg>
