<svg width="current" height="current" viewBox="0 0 286 286" fill="none" xmlns="http://www.w3.org/2000/svg">
<path d="M107.261 130.821H68.5195C63.6099 130.821 59.582 126.829 59.582 121.86C59.582 119.619 60.4281 117.391 62.0369 115.687C82.1164 94.5349 117.95 56.7591 134.359 39.468C136.611 37.0847 139.745 35.75 142.999 35.75C146.264 35.75 149.386 37.0847 151.638 39.468C168.048 56.7591 203.893 94.5349 223.949 115.687C225.569 117.391 226.415 119.619 226.415 121.86C226.415 126.829 222.399 130.821 217.478 130.821H178.737V238.309C178.737 244.637 173.136 250.25 166.82 250.25H119.177C112.861 250.25 107.261 244.637 107.261 238.309V130.821Z" fill="currentColor"/>
</svg>
