<svg width="current" height="current" viewBox="0 0 301 301" fill="none" xmlns="http://www.w3.org/2000/svg">
<path d="M139.618 15.5735C118.299 17.6849 98.3574 27.0724 83.1457 42.1576C67.934 57.2428 58.3803 77.1057 56.0909 98.4063C54.8787 113.338 57.3295 128.34 63.2307 142.109C69.1319 155.878 78.3049 167.999 89.9534 177.419C93.2968 180.06 96.005 183.418 97.8784 187.245C99.7518 191.072 100.743 195.27 100.778 199.531V199.994C100.778 203.059 101.386 206.094 102.568 208.922C103.749 211.75 105.481 214.315 107.661 216.469C109.842 218.623 112.429 220.323 115.272 221.469C118.114 222.615 121.156 223.186 124.221 223.148H176.317C179.382 223.186 182.424 222.615 185.267 221.469C188.109 220.323 190.696 218.623 192.877 216.469C195.058 214.315 196.789 211.75 197.971 208.922C199.152 206.094 199.761 203.059 199.761 199.994V199.531C199.796 195.27 200.787 191.072 202.66 187.245C204.533 183.418 207.242 180.06 210.585 177.419C221.197 168.888 229.781 158.107 235.717 145.854C241.653 133.601 244.793 120.183 244.911 106.568C245.2 52.6196 196.808 9.72711 139.618 15.5735ZM191.02 249.833H109.981C107.587 249.833 105.29 250.784 103.596 252.477C101.903 254.171 100.951 256.468 100.951 258.863C100.967 266.043 103.826 272.924 108.903 278.001C113.98 283.078 120.861 285.937 128.041 285.953H173.191C180.371 285.937 187.253 283.078 192.33 278.001C197.407 272.924 200.266 266.043 200.281 258.863C200.282 257.657 200.041 256.463 199.573 255.353C199.104 254.242 198.419 253.236 197.555 252.394C196.692 251.552 195.669 250.892 194.547 250.452C193.424 250.012 192.225 249.802 191.02 249.833Z" fill="currentColor"/>
</svg>
