<svg width="current" height="current" viewBox="0 0 300 300" fill="none" xmlns="http://www.w3.org/2000/svg">
<path d="M275 175V150C275 139.513 275 130.191 274.839 121.875H25.1613C25 130.191 25 139.513 25 150V175C25 222.14 25 245.711 39.6446 260.355C54.2894 275 77.8595 275 125 275H175C222.14 275 245.711 275 260.355 260.355C275 245.711 275 222.14 275 175Z" fill="currentColor"/>
<path d="M96.8764 31.25C96.8764 26.0724 92.6791 21.875 87.5014 21.875C82.3238 21.875 78.1264 26.0724 78.1264 31.25V50.9907C60.1348 52.4314 48.3236 55.9671 39.6461 64.6446C30.9686 73.3221 27.4328 85.1334 25.9922 103.125H274.01C272.57 85.1334 269.034 73.3221 260.356 64.6446C251.679 55.9671 239.868 52.4314 221.876 50.9907V31.25C221.876 26.0724 217.679 21.875 212.501 21.875C207.324 21.875 203.126 26.0724 203.126 31.25V50.1612C194.81 50 185.489 50 175.001 50H125.001C114.514 50 105.192 50 96.8764 50.1612V31.25Z" fill="currentColor"/>
</svg>
