<svg width="current" height="current" viewBox="0 0 300 300" fill="none" xmlns="http://www.w3.org/2000/svg">
<path d="M266.427 151.223C266.427 174.25 259.599 196.76 246.806 215.906C234.013 235.053 215.829 249.975 194.555 258.787C173.281 267.599 149.872 269.905 127.287 265.413C104.703 260.92 83.9573 249.832 67.6748 233.549C51.3923 217.267 40.3037 196.522 35.8114 173.937C31.319 151.353 33.6247 127.943 42.4367 106.669C51.2488 85.3947 66.1714 67.2114 85.3177 54.4183C104.464 41.6252 126.974 34.7969 150.001 34.7969C165.291 34.7949 180.431 37.8051 194.558 43.6554C208.684 49.5057 221.519 58.0815 232.331 68.8931C243.143 79.7047 251.718 92.5402 257.569 106.667C263.419 120.793 266.429 135.933 266.427 151.223ZM195.192 177.017C195.18 169.027 192.275 161.312 187.015 155.297L187.001 155.267C183.521 151.304 179.363 147.993 174.721 145.488L174.677 145.459C170.654 143.37 166.371 141.822 161.942 140.856H161.913C158.07 140.037 154.151 139.628 150.221 139.635C147.882 139.649 145.545 139.467 143.236 139.091C140.715 138.671 138.268 137.889 135.971 136.767L135.942 136.753C133.842 135.681 131.985 134.19 130.486 132.37L130.471 132.356C128.921 130.543 128.016 128.267 127.898 125.885C128.013 123.93 128.647 122.041 129.735 120.412C130.824 118.784 132.326 117.475 134.089 116.62C139.035 113.715 144.677 112.206 150.413 112.253C152.354 112.409 154.278 112.734 156.163 113.223L156.883 113.37C159.278 113.947 161.609 114.765 163.839 115.812C165.916 116.754 167.812 118.053 169.442 119.65C170.505 120.808 171.792 121.738 173.225 122.386C174.657 123.033 176.206 123.384 177.778 123.416C179.35 123.449 180.912 123.163 182.37 122.576C183.829 121.989 185.153 121.113 186.264 120C187.374 118.888 188.248 117.562 188.833 116.102C189.417 114.643 189.7 113.08 189.665 111.508C189.629 109.937 189.276 108.389 188.626 106.957C187.976 105.526 187.043 104.241 185.883 103.179C182.264 99.5879 178.03 96.6742 173.383 94.5763C169.682 92.8657 165.813 91.5448 161.839 90.6351H161.824L161.707 90.6057V79.0469C161.762 77.4835 161.502 75.925 160.942 74.4643C160.382 73.0036 159.534 71.6706 158.448 70.545C157.361 69.4194 156.059 68.5241 154.619 67.9126C153.18 67.3012 151.631 66.986 150.067 66.986C148.503 66.986 146.954 67.3012 145.514 67.9126C144.074 68.5241 142.773 69.4194 141.686 70.545C140.6 71.6706 139.751 73.0036 139.191 74.4643C138.632 75.925 138.372 77.4835 138.427 79.0469V90.2675C132.494 91.505 126.822 93.7641 121.663 96.9439C116.576 99.8957 112.336 104.108 109.351 109.174C106.366 114.241 104.736 119.991 104.618 125.87C104.707 133.612 107.453 141.089 112.398 147.047C115.983 151.454 120.464 155.048 125.545 157.591C129.914 159.766 134.583 161.277 139.398 162.076C142.975 162.668 146.596 162.959 150.221 162.944C152.494 162.931 154.761 163.158 156.986 163.62C159.372 164.144 161.681 164.975 163.854 166.091C165.973 167.266 167.874 168.798 169.471 170.62C171.017 172.401 171.877 174.674 171.898 177.032C171.898 178.459 171.898 181.797 166.236 185.459C161.213 188.491 155.456 190.088 149.589 190.076C147.15 189.954 144.722 189.659 142.324 189.194C140.006 188.699 137.745 187.97 135.574 187.017C133.533 186.111 131.723 184.729 130.324 182.988C129.333 181.799 128.114 180.82 126.74 180.108C125.366 179.396 123.864 178.964 122.321 178.839C120.778 178.714 119.226 178.898 117.755 179.38C116.284 179.862 114.924 180.632 113.754 181.645C112.584 182.659 111.628 183.895 110.941 185.283C110.255 186.67 109.852 188.18 109.756 189.725C109.659 191.27 109.872 192.818 110.381 194.28C110.891 195.742 111.686 197.087 112.721 198.238C116.554 202.803 121.432 206.375 126.942 208.65C130.601 210.214 134.417 211.382 138.324 212.135H138.427V223.65C138.372 225.213 138.632 226.772 139.191 228.232C139.751 229.693 140.6 231.026 141.686 232.152C142.773 233.277 144.074 234.173 145.514 234.784C146.954 235.396 148.503 235.711 150.067 235.711C151.631 235.711 153.18 235.396 154.619 234.784C156.059 234.173 157.361 233.277 158.448 232.152C159.534 231.026 160.382 229.693 160.942 228.232C161.502 226.772 161.762 225.213 161.707 223.65V212.032C167.814 210.723 173.64 208.338 178.913 204.988C183.824 202.151 187.909 198.081 190.764 193.18C193.62 188.28 195.146 182.718 195.192 177.047V177.017Z" fill="currentColor"/>
</svg>
