<svg width="current" height="current" viewBox="0 0 222 222" fill="none" xmlns="http://www.w3.org/2000/svg">
<g clip-path="url(#clip0_242_99)">
<path d="M110.998 0C49.6994 0 0 49.6977 0 110.998C0 172.299 49.6994 221.997 110.998 221.997C172.303 221.997 222.001 172.299 222.001 110.998C222.001 49.6977 172.303 0 110.998 0ZM110.998 212.135C55.2346 212.135 9.86296 166.765 9.86296 110.998C9.86296 55.2328 55.2346 9.86296 110.998 9.86296C166.765 9.86296 212.135 55.2328 212.135 110.998C212.135 166.764 166.768 212.135 110.998 212.135Z" fill="currentColor"/>
<path d="M143.764 31.1648V114.978L150.11 108.634C153.237 105.504 158.297 105.504 161.421 108.634C164.545 111.759 164.545 116.822 161.421 119.943L141.426 139.938L141.418 139.949L135.765 145.599L130.118 139.949L130.104 139.938L111.442 121.276C108.316 118.148 108.316 113.087 111.442 109.965C114.566 106.841 119.629 106.841 122.753 109.965L127.766 114.974V27.9555C127.766 27.4046 127.828 26.8748 127.928 26.3503C122.451 25.2569 116.794 24.6641 110.999 24.6641C63.3973 24.6641 24.668 63.3934 24.668 110.996C24.668 145.21 44.7335 174.757 73.6683 188.717V107.099L67.3266 113.442C65.7664 115.006 63.7178 115.788 61.6691 115.788C59.6222 115.788 57.5777 115.006 56.0139 113.442C52.8881 110.316 52.8881 105.253 56.0139 102.133L76.0086 82.1358C76.0122 82.1322 76.0122 82.1322 76.0122 82.1322L81.6692 76.477L87.3214 82.125C87.3214 82.125 87.325 82.1322 87.3322 82.1358L105.996 100.8C109.122 103.925 109.122 108.988 105.996 112.109C102.87 115.236 97.8073 115.236 94.6832 112.109L89.6725 107.102V194.121C89.6725 194.265 89.6383 194.403 89.6311 194.547C96.4793 196.302 103.616 197.329 111.002 197.329C158.607 197.329 197.343 158.6 197.343 110.999C197.336 74.9942 175.161 44.0989 143.764 31.1648Z" fill="currentColor"/>
</g>
</svg>
