<svg width="current" height="current" viewBox="0 0 300 300" fill="none" xmlns="http://www.w3.org/2000/svg">
<path d="M212.525 162.5C219.429 162.5 225.025 168.096 225.025 175C225.025 181.41 220.2 186.694 213.983 187.416L212.525 187.5H67.7126L108.864 228.661C113.37 233.167 113.717 240.258 109.904 245.161L108.864 246.339C104.358 250.845 97.2675 251.191 92.3638 247.379L91.1862 246.339L28.6862 183.839C21.154 176.307 25.9292 163.66 36.1047 162.575L37.5251 162.5H212.525ZM207.661 52.6213L208.839 53.6612L271.339 116.161C278.871 123.693 274.096 136.34 263.92 137.425L262.5 137.5H87.5C80.5964 137.5 75 131.904 75 125C75 118.59 79.8255 113.306 86.0422 112.584L87.5 112.5H232.312L191.161 71.3388C186.655 66.8328 186.308 59.7424 190.121 54.8388L191.161 53.6612C195.667 49.1551 202.758 48.8085 207.661 52.6213Z" fill="currentColor" stroke="#868686" stroke-width="0.672"/>
</svg>
