<svg width="current" height="current" viewBox="0 0 303 303" fill="none" xmlns="http://www.w3.org/2000/svg">
<g clip-path="url(#clip0_234_244)">
<path d="M151.5 271.438C161.959 271.438 170.438 262.959 170.438 252.5C170.438 242.041 161.959 233.562 151.5 233.562C141.041 233.562 132.562 242.041 132.562 252.5C132.562 262.959 141.041 271.438 151.5 271.438Z" fill="currentColor"/>
<path d="M150.237 208.309H152.763C156.127 208.17 159.327 206.813 161.765 204.49C164.204 202.168 165.715 199.038 166.019 195.684L176.75 46.0781C176.75 39.3814 174.09 32.959 169.354 28.2237C164.619 23.4884 158.197 20.8281 151.5 20.8281C144.803 20.8281 138.381 23.4884 133.646 28.2237C128.91 32.959 126.25 39.3814 126.25 46.0781L136.981 195.684C137.285 199.038 138.796 202.168 141.235 204.49C143.673 206.813 146.873 208.17 150.237 208.309Z" fill="currentColor"/>
</g>
<!-- <defs>
<clipPath id="clip0_234_244">
<rect width="303" height="303" fill="white"/>
</clipPath>
</defs> -->
</svg>
