<svg width="current" height="current" viewBox="0 0 300 300" fill="none" xmlns="http://www.w3.org/2000/svg">
<path d="M46.875 18.75C39.4158 18.75 32.2621 21.7132 26.9876 26.9876C21.7132 32.2621 18.75 39.4158 18.75 46.875V253.125C18.75 260.584 21.7132 267.738 26.9876 273.012C32.2621 278.287 39.4158 281.25 46.875 281.25H160.988C168.444 281.243 175.593 278.276 180.863 273L273.019 180.863C278.288 175.59 281.248 168.442 281.25 160.988V46.875C281.25 39.4158 278.287 32.2621 273.012 26.9876C267.738 21.7132 260.584 18.75 253.125 18.75H46.875ZM159.375 178.125C159.375 173.152 161.35 168.383 164.867 164.867C168.383 161.35 173.152 159.375 178.125 159.375H260.55C261.478 159.373 262.386 159.647 263.159 160.162C263.931 160.677 264.533 161.41 264.889 162.268C265.244 163.125 265.337 164.069 265.155 164.979C264.974 165.89 264.526 166.726 263.869 167.381L167.381 263.869C166.726 264.526 165.89 264.974 164.979 265.155C164.069 265.337 163.125 265.244 162.268 264.889C161.41 264.533 160.677 263.931 160.162 263.159C159.647 262.386 159.373 261.478 159.375 260.55V178.125Z" fill="currentColor" stroke="#868686" stroke-width="0.00016"/>
</svg>
