<svg width="current" height="current" viewBox="0 0 269 269" fill="none" xmlns="http://www.w3.org/2000/svg">
<path d="M69.7406 51.5678C74.7234 48.2383 79.9553 45.3506 85.3763 42.9229C100.753 36.0368 108.441 32.5938 118.67 39.2201C128.897 45.8466 128.897 56.7164 128.897 78.4561V95.2686C128.897 116.403 128.897 126.97 135.463 133.536C142.029 140.102 152.596 140.102 173.73 140.102H190.543C212.283 140.102 223.153 140.102 229.779 150.329C236.405 160.558 232.962 168.246 226.076 183.623C223.648 189.044 220.761 194.276 217.432 199.258C205.731 216.769 189.102 230.416 169.645 238.476C150.189 246.535 128.779 248.643 108.124 244.535C87.4693 240.427 68.4965 230.285 53.6051 215.394C38.7137 200.502 28.5725 181.53 24.464 160.875C20.3554 140.22 22.4642 118.81 30.5233 99.3541C38.5824 79.8975 52.2301 63.2678 69.7406 51.5678Z" fill="currentColor" stroke="black" stroke-width="0.00024"/>
<path d="M240.375 79.2289C231.276 56.1319 212.867 37.722 189.77 28.623C172.492 21.8163 156.918 37.4684 156.918 56.039V100.872C156.918 107.062 161.936 112.08 168.126 112.08H212.96C231.531 112.08 247.182 96.507 240.375 79.2289Z" fill="currentColor" stroke="black" stroke-width="0.00024"/>
</svg>
