<svg width="current" height="current" viewBox="0 0 213 213" fill="none" xmlns="http://www.w3.org/2000/svg">
<g clip-path="url(#clip0_231_206)">
<path d="M133.715 23.6686H127.503C125.886 19.2318 122.944 15.3995 119.076 12.6916C115.207 9.98371 110.6 8.53125 105.877 8.53125C101.155 8.53125 96.5475 9.98371 92.679 12.6916C88.8104 15.3995 85.8684 19.2318 84.252 23.6686H79.282C75.5208 23.6842 71.918 25.1853 69.2583 27.8449C66.5987 30.5046 65.0976 34.1074 65.082 37.8686V59.1686H147.915V37.8686C147.9 34.1074 146.399 30.5046 143.739 27.8449C141.079 25.1853 137.477 23.6842 133.715 23.6686ZM136.082 47.3353H76.9154V36.9811C76.9154 36.5888 77.0712 36.2126 77.3486 35.9352C77.626 35.6578 78.0022 35.502 78.3945 35.502H94.3104L95.0204 28.9345C95.1463 27.8726 95.5028 26.8511 96.0649 25.9415C96.627 25.0319 97.3812 24.2562 98.2745 23.6686C99.8625 22.4849 101.722 21.7186 103.683 21.4401C105.644 21.1616 107.643 21.3798 109.498 22.0745C111.353 22.7693 113.004 23.9185 114.299 25.4168C115.594 26.9151 116.493 28.7146 116.912 30.6503L117.445 35.6203H134.603C134.995 35.6203 135.371 35.7761 135.649 36.0535C135.926 36.3309 136.082 36.7072 136.082 37.0995V47.3353Z" fill="currentColor"/>
<path d="M196.73 106.855H126.204L143.007 90.1105C143.559 89.5588 143.996 88.9039 144.295 88.1831C144.594 87.4623 144.747 86.6898 144.747 85.9096C144.747 85.1295 144.594 84.3569 144.295 83.6362C143.996 82.9154 143.559 82.2605 143.007 81.7088C142.455 81.1571 141.801 80.7195 141.08 80.421C140.359 80.1224 139.586 79.9687 138.806 79.9688C138.026 79.9688 137.254 80.1224 136.533 80.421C135.812 80.7195 135.157 81.1571 134.605 81.7088L103.543 112.771L134.605 143.834C135.158 144.382 135.814 144.816 136.535 145.11C137.256 145.405 138.028 145.554 138.806 145.55C139.969 145.545 141.105 145.197 142.072 144.551C143.039 143.904 143.793 142.986 144.241 141.913C144.69 140.84 144.812 139.658 144.592 138.516C144.373 137.374 143.821 136.322 143.007 135.491L126.204 118.688H196.73C198.3 118.688 199.805 118.065 200.914 116.955C202.024 115.845 202.647 114.34 202.647 112.771C202.647 111.202 202.024 109.697 200.914 108.588C199.805 107.478 198.3 106.855 196.73 106.855Z" fill="currentColor"/>
<path d="M171.583 94.6693H183.416V39.5259C183.432 38.2312 183.191 36.9461 182.708 35.7447C182.225 34.5432 181.51 33.4491 180.602 32.5253C179.695 31.6015 178.614 30.8662 177.421 30.3618C176.229 29.8573 174.948 29.5936 173.653 29.5859H160.223V41.4193H171.583V94.6693Z" fill="currentColor"/>
<path d="M171.583 183.419H41.4161V41.4193H53.2494V29.5859H39.2861C36.6915 29.6172 34.2147 30.6738 32.3966 32.5252C30.5785 34.3765 29.5669 36.872 29.5827 39.4668V185.313C29.5671 186.607 29.8077 187.892 30.2906 189.094C30.7734 190.295 31.4891 191.389 32.3964 192.313C33.3038 193.237 34.3848 193.972 35.5773 194.477C36.7699 194.981 38.0504 195.245 39.3452 195.253H173.713C176.307 195.221 178.784 194.165 180.602 192.313C182.42 190.462 183.432 187.967 183.416 185.372V130.524H171.583V183.419Z" fill="currentColor"/>
</g>
<!-- <defs>
<clipPath id="clip0_231_206">
<rect width="213" height="213" fill="white"/>
</clipPath>
</defs> -->
</svg>
