<svg width="current" height="current" viewBox="0 0 229 229" fill="none" xmlns="http://www.w3.org/2000/svg">
<path fill-rule="evenodd" clip-rule="evenodd" d="M9.54102 114.497C9.54102 56.5305 56.5325 9.53906 114.499 9.53906C172.466 9.53906 219.458 56.5305 219.458 114.497C219.458 172.464 172.466 219.456 114.499 219.456C56.5325 219.456 9.54102 172.464 9.54102 114.497ZM119.27 52.4766C124.54 52.4766 128.812 56.7486 128.812 62.0182V100.185H166.979C172.248 100.185 176.52 104.457 176.52 109.727V119.268C176.52 124.538 172.248 128.81 166.979 128.81H128.812V166.977C128.812 172.246 124.54 176.518 119.27 176.518H109.729C104.459 176.518 100.187 172.246 100.187 166.977V128.81H62.0202C56.7505 128.81 52.4785 124.538 52.4785 119.268V109.727C52.4785 104.457 56.7505 100.185 62.0202 100.185H100.187V62.0182C100.187 56.7486 104.459 52.4766 109.729 52.4766H119.27Z" fill="currentColor"/>
</svg>
