<svg width="current" height="current" viewBox="0 0 300 300" fill="none" xmlns="http://www.w3.org/2000/svg">
<path d="M250.001 187.501H225.001V37.5012C224.994 35.3704 224.443 33.2767 223.4 31.4187C222.357 29.5608 220.856 28.0004 219.04 26.8858C217.224 25.7711 215.153 25.1392 213.024 25.05C210.895 24.9608 208.779 25.4174 206.876 26.3762L163.376 48.1262L131.876 27.1262C129.835 25.7821 127.445 25.0658 125.001 25.0658C122.557 25.0658 120.167 25.7821 118.126 27.1262L86.6257 48.1262L43.1257 26.3762C41.2229 25.4174 39.1065 24.9608 36.9775 25.05C34.8486 25.1392 32.7778 25.7711 30.9618 26.8858C29.1458 28.0004 27.6448 29.5608 26.6015 31.4187C25.5582 33.2767 25.0072 35.3704 25.0007 37.5012V222.876C24.9302 236.023 29.8422 248.709 38.748 258.38C47.6539 268.051 59.8926 273.99 73.0008 275.001H225.001C238.262 275.001 250.979 269.733 260.356 260.357C269.733 250.98 275.001 238.262 275.001 225.001V212.501C275.001 205.871 272.367 199.512 267.678 194.824C262.99 190.135 256.631 187.501 250.001 187.501ZM100.001 112.501H150.001C153.316 112.501 156.495 113.818 158.84 116.162C161.184 118.507 162.501 121.686 162.501 125.001C162.501 128.316 161.184 131.496 158.84 133.84C156.495 136.184 153.316 137.501 150.001 137.501H100.001C96.6855 137.501 93.5061 136.184 91.1619 133.84C88.8177 131.496 87.5008 128.316 87.5008 125.001C87.5008 121.686 88.8177 118.507 91.1619 116.162C93.5061 113.818 96.6855 112.501 100.001 112.501ZM250.001 225.001C250.001 231.632 247.367 237.99 242.678 242.679C237.99 247.367 231.631 250.001 225.001 250.001H118.251C119.207 248.442 120.043 246.813 120.751 245.126V244.251C121.863 241.637 122.701 238.914 123.251 236.126C123.311 235.419 123.311 234.708 123.251 234.001C124.091 231.057 124.676 228.046 125.001 225.001V212.501H250.001V225.001Z" fill="currentColor" stroke="black" stroke-width="0.00024"/>
</svg>
