<svg width="current" height="current" viewBox="0 0 250 250" fill="none" xmlns="http://www.w3.org/2000/svg">
<path d="M200.494 152.646C200.494 156.3 197.532 159.262 193.878 159.262H166.15C162.497 159.262 159.534 156.3 159.534 152.646V140.023H89.6349V152.646C89.6349 156.3 86.673 159.262 83.0187 159.262H55.291C51.6373 159.262 48.6748 156.3 48.6748 152.646V140.023H13.3477V238.725C13.3477 244.953 18.396 250.001 24.6233 250.001H224.546C230.773 250.001 235.821 244.953 235.821 238.725V140.023H200.494V152.646Z" fill="currentColor"/>
<path d="M237.894 46.9326H173.069V10.9377C173.069 4.89736 168.172 0 162.131 0H87.0385C80.9976 0 76.1008 4.89736 76.1008 10.9377V46.9326H11.2757C5.0483 46.9326 0 51.9809 0 58.2083V121.094H48.6761V108.782C48.6761 105.128 51.638 102.166 55.2923 102.166H83.02C86.6737 102.166 89.6362 105.128 89.6362 108.782V121.094H159.536V108.782C159.536 105.128 162.498 102.166 166.152 102.166H193.88C197.533 102.166 200.496 105.128 200.496 108.782V121.094H249.171V58.2083C249.17 51.9809 244.122 46.9326 237.894 46.9326ZM97.9762 21.8754H151.194V46.9326H97.9762V21.8754Z" fill="currentColor"/>
</svg>
